<svg width="120" height="101" viewBox="0 0 120 101" fill="none" xmlns="http://www.w3.org/2000/svg">
<g clip-path="url(#clip0)">
<path opacity="0.24" d="M110.968 86.1426C110.028 88.6802 108.853 91.2107 106.949 93.1286C105.379 94.7096 103.475 95.7345 101.4 96.479C97.9781 97.7066 94.1143 98.1708 90.5467 99.0708C84.7305 100.552 79.357 103.419 74.8823 107.428C73.0938 109.035 71.4134 110.852 69.2418 111.867C67.5543 112.666 65.6647 112.923 63.8081 113.102C51.7856 114.223 39.6806 112.151 28.7097 107.096C25.6544 105.682 22.6343 103.983 20.451 101.408C19.0032 99.6999 17.9903 97.6901 17.0455 95.6638C16.9209 95.4164 16.8104 95.1761 16.6976 94.9358C12.5025 85.9258 8.2744 76.7392 6.92066 66.8975C5.56693 57.0559 7.51762 46.2576 14.3286 39.0337C18.9868 34.0857 25.4899 31.2018 30.141 26.261C34.2045 21.9303 36.6511 16.2426 40.9238 12.124C51.7349 1.66271 65.3663 7.88295 77.2584 12.3596C89.8345 17.0908 100.742 26.2987 107.313 38.0606C115.393 52.5509 116.771 70.6085 110.968 86.1426Z" fill="#FF9F43"/>
<path d="M43.6431 45.7316L49.5886 44.553C49.5886 44.553 50.1034 44.482 49.957 45.1399L41.4897 47.4072L39.9219 47.8096L39.2277 46.5647L43.6431 45.7316Z" fill="#FF9F43"/>
<path d="M43.6431 45.7316L49.5886 44.553C49.5886 44.553 50.1034 44.482 49.957 45.1399L41.4897 47.4072L39.9219 47.8096L39.2277 46.5647L43.6431 45.7316Z" fill="url(#paint0_linear)"/>
<path d="M51.9121 16.5313C50.7645 18.2353 50.5804 20.4506 50.9676 22.4765C51.1339 23.1928 51.2585 23.9182 51.3407 24.6491C51.506 27.3045 49.7209 29.6807 49.3053 32.3077C48.9039 34.8543 49.8484 37.4671 51.3312 39.5735C52.8141 41.6798 54.8069 43.3602 56.7762 45.0311C58.6652 43.0525 59.3121 40.1983 59.3641 37.4576C59.416 34.717 58.9343 32.0237 58.8588 29.2973C58.784 27.9999 58.918 26.699 59.2555 25.4443C59.9308 23.1959 61.6167 21.0328 61.0452 18.7607C60.6958 17.4401 59.6285 16.4509 58.6274 15.5373C57.4798 14.5007 56.6723 13.98 55.0619 14.3398C53.7716 14.6409 52.6448 15.4249 51.9121 16.5313Z" fill="#606161"/>
<path d="M51.9121 16.5313C50.7645 18.2353 50.5804 20.4506 50.9676 22.4765C51.1339 23.1928 51.2585 23.9182 51.3407 24.6491C51.506 27.3045 49.7209 29.6807 49.3053 32.3077C48.9039 34.8543 49.8484 37.4671 51.3312 39.5735C52.8141 41.6798 54.8069 43.3602 56.7762 45.0311C58.6652 43.0525 59.3121 40.1983 59.3641 37.4576C59.416 34.717 58.9343 32.0237 58.8588 29.2973C58.784 27.9999 58.918 26.699 59.2555 25.4443C59.9308 23.1959 61.6167 21.0328 61.0452 18.7607C60.6958 17.4401 59.6285 16.4509 58.6274 15.5373C57.4798 14.5007 56.6723 13.98 55.0619 14.3398C53.7716 14.6409 52.6448 15.4249 51.9121 16.5313Z" fill="url(#paint1_linear)"/>
<path d="M52.3985 64.5752L28.7864 55.9273L30.1276 59.9034C30.1276 59.9034 47.6005 72.9675 51.761 72.2102C55.9214 71.4528 52.3985 64.5752 52.3985 64.5752Z" fill="#BA816C"/>
<path d="M27.8514 55.3499L22.3356 42.4088C22.1777 42.0395 22.1057 41.6391 22.1249 41.2377C22.1441 40.8364 22.254 40.4448 22.4465 40.0923C22.6389 39.7399 22.9087 39.4359 23.2356 39.2033C23.5624 38.9707 23.9377 38.8157 24.3332 38.7499L34 37.1216C34.6079 37.0182 35.2327 37.1309 35.7665 37.4403C36.3003 37.7498 36.7094 38.2364 36.9231 38.8161L46.2499 64.064C46.3861 64.4344 46.4384 64.8305 46.4029 65.2236C46.3674 65.6167 46.2451 65.997 46.0448 66.3369C45.8445 66.6768 45.5713 66.9677 45.2449 67.1886C44.9186 67.4095 44.5472 67.5548 44.1579 67.6141L35.5584 68.8921C34.973 68.9773 34.3761 68.8638 33.8626 68.5696C33.3491 68.2753 32.9486 67.8173 32.7249 67.2685L27.8514 55.3499Z" fill="white"/>
<path d="M27.006 55.5061L21.7783 43.2371C21.6287 42.887 21.5602 42.5074 21.5781 42.1269C21.596 41.7464 21.6998 41.375 21.8816 41.0405C22.0635 40.706 22.3187 40.4173 22.628 40.196C22.9373 39.9746 23.2926 39.8265 23.6673 39.7628L32.8335 38.2197C33.4101 38.1236 34.0021 38.2317 34.508 38.5253C35.0138 38.819 35.4018 39.2799 35.6056 39.8291L44.446 63.7706C44.5758 64.121 44.626 64.4961 44.593 64.8685C44.5599 65.2408 44.4444 65.6011 44.2548 65.9231C44.0653 66.245 43.8064 66.5206 43.4972 66.7296C43.188 66.9386 42.8361 67.0758 42.4673 67.1313L34.3116 68.3572C33.7553 68.4396 33.1875 68.3328 32.6988 68.054C32.21 67.7752 31.8285 67.3404 31.6151 66.8189L27.006 55.5061Z" fill="#FF9F43"/>
<path d="M27.006 55.5061L21.7783 43.2371C21.6287 42.887 21.5602 42.5074 21.5781 42.1269C21.596 41.7464 21.6998 41.375 21.8816 41.0405C22.0635 40.706 22.3187 40.4173 22.628 40.196C22.9373 39.9746 23.2926 39.8265 23.6673 39.7628L32.8335 38.2197C33.4101 38.1236 34.0021 38.2317 34.508 38.5253C35.0138 38.819 35.4018 39.2799 35.6056 39.8291L44.446 63.7706C44.5758 64.121 44.626 64.4961 44.593 64.8685C44.5599 65.2408 44.4444 65.6011 44.2548 65.9231C44.0653 66.245 43.8064 66.5206 43.4972 66.7296C43.188 66.9386 42.8361 67.0758 42.4673 67.1313L34.3116 68.3572C33.7553 68.4396 33.1875 68.3328 32.6988 68.054C32.21 67.7752 31.8285 67.3404 31.6151 66.8189L27.006 55.5061Z" fill="url(#paint2_linear)"/>
<path d="M30.34 59.2265C30.3405 59.4776 30.2774 59.7247 30.1564 59.9446C30.0355 60.1645 29.8608 60.35 29.6487 60.4837C29.4367 60.6173 29.1942 60.6948 28.944 60.7087C28.6939 60.7227 28.4443 60.6727 28.2188 60.5634C27.9932 60.4542 27.7991 60.2892 27.6546 60.0841C27.51 59.879 27.4199 59.6405 27.3926 59.3909C27.3653 59.1413 27.4017 58.8888 27.4985 58.6572C27.5953 58.4256 27.7492 58.2224 27.9458 58.0668" stroke="#FF9F43" stroke-width="1.14" stroke-miterlimit="10" stroke-linecap="round"/>
<path d="M31.7993 62.8097C31.7998 63.0608 31.7366 63.3079 31.6157 63.5278C31.4947 63.7477 31.32 63.9332 31.1079 64.0668C30.8959 64.2005 30.6534 64.2779 30.4033 64.2919C30.1531 64.3058 29.9036 64.2558 29.678 64.1466C29.4525 64.0373 29.2583 63.8724 29.1138 63.6673C28.9693 63.4622 28.8791 63.2237 28.8518 62.9741C28.8245 62.7245 28.861 62.472 28.9577 62.2404C29.0545 62.0088 29.2084 61.8056 29.405 61.65" stroke="#FF9F43" stroke-width="1.14" stroke-miterlimit="10" stroke-linecap="round"/>
<path d="M33.2585 66.3976C33.2582 66.6485 33.1943 66.8952 33.0729 67.1146C32.9515 67.334 32.7764 67.5189 32.5642 67.6519C32.352 67.785 32.1095 67.8618 31.8595 67.8753C31.6096 67.8887 31.3603 67.8383 31.1351 67.7288C30.9099 67.6192 30.7161 67.4542 30.572 67.2491C30.4278 67.044 30.338 66.8055 30.3109 66.5561C30.2838 66.3067 30.3204 66.0544 30.4172 65.823C30.514 65.5916 30.6678 65.3887 30.8642 65.2332" stroke="#FF9F43" stroke-width="1.14" stroke-miterlimit="10" stroke-linecap="round"/>
<path d="M55.3358 42.0963L44.1295 62.4973L51.1281 65.5266C51.1281 65.5266 56.5542 43.8572 55.3358 42.0963Z" fill="#FF9F43"/>
<path d="M53.5082 85.5063C53.5082 85.5063 56.5069 125.484 56.8422 126.142C57.1775 126.8 63.2647 162.518 63.2647 162.518C63.2647 162.518 67.5149 165.25 72.5348 161.974L68.5727 125.182L70.4097 90.0929C70.4097 90.0929 56.0819 84.1951 53.5082 85.5063Z" fill="#606161"/>
<path d="M48.0066 82.2213C48.0066 82.2213 41.178 120.325 41.4236 121.035C41.6691 121.745 43.1 158.613 43.1 158.613C43.1 158.613 46.9346 161.203 52.3324 158.613L53.1824 121.617L59.5577 87.0636C59.5577 87.0636 50.7315 81.2604 48.0066 82.2213Z" fill="#606161"/>
<path d="M48.0066 82.2213C48.0066 82.2213 41.178 120.325 41.4236 121.035C41.6691 121.745 43.1 158.613 43.1 158.613C43.1 158.613 46.9346 161.203 52.3324 158.613L53.1824 121.617L59.5577 87.0636C59.5577 87.0636 50.7315 81.2604 48.0066 82.2213Z" fill="url(#paint3_linear)"/>
<path d="M53.5082 85.5063C53.5082 85.5063 56.5069 125.484 56.8422 126.142C57.1775 126.8 63.2647 162.518 63.2647 162.518C63.2647 162.518 67.5149 165.25 72.5348 161.974L68.5727 125.182L70.4097 90.0929C70.4097 90.0929 56.0819 84.1951 53.5082 85.5063Z" fill="#606161"/>
<path d="M53.5082 85.5063C53.5082 85.5063 56.5069 125.484 56.8422 126.142C57.1775 126.8 63.2647 162.518 63.2647 162.518C63.2647 162.518 67.5149 165.25 72.5348 161.974L68.5727 125.182L70.4097 90.0929C70.4097 90.0929 56.0819 84.1951 53.5082 85.5063Z" fill="url(#paint4_linear)"/>
<path d="M73.3708 38.9629C73.3708 38.9629 66.1785 35.356 63.5623 35.6826C58.8021 36.279 56.8612 41.2349 55.5342 45.2157C51.0668 58.7248 52.4268 72.4847 48.8425 86.1548C48.8425 86.1548 49.8201 91.068 56.0348 92.0526C62.2495 93.0371 59.6285 61.5743 61.9189 55.3499C64.2093 49.1255 75.987 40.274 73.3708 38.9629Z" fill="white"/>
<path d="M62.4998 35.924C62.4998 35.924 57.0218 37.344 55.7184 39.6161C55.7184 40.8373 54.3253 42.9721 54.0088 44.2737C52.4599 50.678 50.1176 56.803 47.898 62.9186C46.4282 67.1185 45.4241 71.4678 44.904 75.888C44.616 78.1317 44.6443 80.4652 44.2759 82.6852C43.9076 84.9051 44.1815 85.3643 45.8721 86.7938C46.1602 87.0352 50.6748 90.6041 50.7645 90.0361C52.1057 81.8758 53.4437 73.7154 54.7786 65.555C55.3831 61.8583 55.7656 58.3508 56.7904 54.7108C57.8132 51.1624 59.0641 47.6839 60.5352 44.2974C60.7997 43.6726 64.2518 35.4791 62.4998 35.924Z" fill="#FF9F43"/>
<path d="M72.3271 40.203C70.4003 38.783 68.6483 39.2989 66.9482 41.0456C65.6401 42.3993 64.8609 44.1696 64.1431 45.9067C62.0089 50.8884 60.3057 56.0447 59.0523 61.3187C58.5234 63.6854 57.8812 65.9148 57.5742 68.3572C57.2437 70.97 57.017 73.5971 56.5778 76.1957C55.9969 79.6511 55.0619 83.2958 55.0619 86.7985C55.0619 91.0585 55.3877 94.992 61.9283 95.6499C68.4688 96.3079 72.5349 95.7825 72.5349 95.7825C72.5349 95.7825 77.9515 55.0091 76.9692 47.8001C76.7378 46.115 76.615 44.3826 75.425 43.0667C74.5368 42.0999 73.5821 41.1968 72.5679 40.3639C72.4892 40.3135 72.4089 40.2598 72.3271 40.203Z" fill="#FF9F43"/>
<path d="M62.4998 35.924C62.4998 35.924 57.0218 37.344 55.7184 39.6161C55.7184 40.8373 54.3253 42.9721 54.0088 44.2737C52.4599 50.678 50.1176 56.803 47.898 62.9186C46.4282 67.1185 45.4241 71.4678 44.904 75.888C44.616 78.1317 44.6443 80.4652 44.2759 82.6852C43.9076 84.9051 44.1815 85.3643 45.8721 86.7938C46.1602 87.0352 50.6748 90.6041 50.7645 90.0361C52.1057 81.8758 53.4437 73.7154 54.7786 65.555C55.3831 61.8583 55.7656 58.3508 56.7904 54.7108C57.8132 51.1624 59.0641 47.6839 60.5352 44.2974C60.7997 43.6726 64.2518 35.4791 62.4998 35.924Z" fill="url(#paint5_linear)"/>
<path d="M72.3271 40.203C70.4003 38.783 68.6483 39.2989 66.9482 41.0456C65.6401 42.3993 64.8609 44.1696 64.1431 45.9067C62.0089 50.8884 60.3057 56.0447 59.0523 61.3187C58.5234 63.6854 57.8812 65.9148 57.5742 68.3572C57.2437 70.97 57.017 73.5971 56.5778 76.1957C55.9969 79.6511 55.0619 83.2958 55.0619 86.7985C55.0619 91.0585 55.3877 94.992 61.9283 95.6499C68.4688 96.3079 72.5349 95.7825 72.5349 95.7825C72.5349 95.7825 77.9515 55.0091 76.9692 47.8001C76.7378 46.115 76.615 44.3826 75.425 43.0667C74.5368 42.0999 73.5821 41.1968 72.5679 40.3639C72.4892 40.3135 72.4089 40.2598 72.3271 40.203Z" fill="url(#paint6_linear)"/>
<path d="M54.8352 17.3928C52.9888 20.3464 52.8046 24.4645 52.6015 27.8441C52.4221 30.7599 51.8129 35.6779 55.6569 36.653C56.4692 36.8612 57.3239 36.6814 58.1551 36.7334C58.2713 36.7315 58.3862 36.7574 58.4904 36.8092C58.576 36.8799 58.6459 36.9678 58.6955 37.0673C58.7451 37.1667 58.7734 37.2755 58.7784 37.3866C58.8783 38.1489 59.0604 38.898 59.3215 39.6208C59.8976 40.9793 61.5647 41.9118 62.9625 41.0408C64.162 40.3071 64.4973 38.1061 64.8515 36.8802C65.5976 34.2342 63.2978 30.8214 62.9153 28.1281C62.2589 23.5415 61.6072 18.2969 59.3168 16.6591C57.272 15.2154 55.8411 15.7835 54.8352 17.3928Z" fill="#BA816C"/>
<path d="M54.3204 16.1053C55.2082 17.7241 57.0122 19.3288 57.9661 20.4837C59.7512 22.6421 61.8338 24.7911 62.3485 27.6595C62.6838 29.5245 62.2447 31.4462 61.9991 33.3112C61.8598 34.3897 61.7841 35.4755 61.7724 36.563C61.7383 37.1296 61.8005 37.6978 61.9566 38.2434C62.613 40.2125 64.5822 40.9367 66.509 41.1497C68.1146 41.3295 69.7486 41.2017 71.3447 41.4668C72.8269 41.7247 74.2326 42.3123 75.4584 43.1863C76.6842 44.0603 77.6991 45.1985 78.4284 46.5173C79.4836 45.2611 80.1209 43.7058 80.2513 42.0688C80.3817 40.4317 79.9986 38.7948 79.1556 37.3866C77.6114 34.93 74.6882 33.3348 73.961 30.5327C73.2337 27.7305 74.8724 25.0372 75.3021 22.2303C75.8358 18.8128 74.4615 15.2486 72.0531 12.7635C69.6447 10.2785 66.2965 8.85376 62.8774 8.39462C61.6383 8.18082 60.3685 8.22432 59.1467 8.52242C58.0421 8.86612 57.0242 9.44406 56.1622 10.217C54.9532 11.2536 53.9143 12.6499 53.834 14.2404C53.8229 14.8949 53.9911 15.54 54.3204 16.1053Z" fill="#606161"/>
<path d="M54.3204 16.1053C55.2082 17.7241 57.0122 19.3288 57.9661 20.4837C59.7512 22.6421 61.8338 24.7911 62.3485 27.6595C62.6838 29.5245 62.2447 31.4462 61.9991 33.3112C61.8598 34.3897 61.7841 35.4755 61.7724 36.563C61.7383 37.1296 61.8005 37.6978 61.9566 38.2434C62.613 40.2125 64.5822 40.9367 66.509 41.1497C68.1146 41.3295 69.7486 41.2017 71.3447 41.4668C72.8269 41.7247 74.2326 42.3123 75.4584 43.1863C76.6842 44.0603 77.6991 45.1985 78.4284 46.5173C79.4836 45.2611 80.1209 43.7058 80.2513 42.0688C80.3817 40.4317 79.9986 38.7948 79.1556 37.3866C77.6114 34.93 74.6882 33.3348 73.961 30.5327C73.2337 27.7305 74.8724 25.0372 75.3021 22.2303C75.8358 18.8128 74.4615 15.2486 72.0531 12.7635C69.6447 10.2785 66.2965 8.85376 62.8774 8.39462C61.6383 8.18082 60.3685 8.22432 59.1467 8.52242C58.0421 8.86612 57.0242 9.44406 56.1622 10.217C54.9532 11.2536 53.9143 12.6499 53.834 14.2404C53.8229 14.8949 53.9911 15.54 54.3204 16.1053Z" fill="url(#paint7_linear)"/>
<path d="M77.007 75.5662C71.614 74.7094 49.7114 53.3192 49.7114 53.3192C49.7114 53.3192 52.1529 49.5325 52.5921 49.6225C52.8566 49.6887 63.4017 56.2492 71.7037 61.4559L81.6728 67.6898C81.9581 67.8829 82.1997 68.134 82.3819 68.4267C82.5642 68.7195 82.683 69.0473 82.7306 69.3891C83.2784 72.0303 81.2241 76.2383 77.007 75.5662Z" fill="#BA816C"/>
<path d="M83.5098 66.052C83.5098 67.2543 83.5098 68.5134 82.8392 69.5263C82.8067 69.4866 82.7703 69.4501 82.7306 69.4175C82.683 69.0757 82.5642 68.7479 82.382 68.4551C82.1997 68.1624 81.9581 67.9113 81.6728 67.7182L71.7037 61.4607C70.0887 56.8456 68.398 52.0601 68.5161 47.322C68.5129 46.4843 68.6986 45.6568 69.0592 44.9011C69.4198 44.1454 69.9461 43.4811 70.5987 42.9578C75.765 39.0907 81.2383 49.2674 82.3103 53.1062C83.4956 57.2811 83.5098 61.6784 83.5098 66.052Z" fill="#FF9F43"/>
<path d="M59.5577 76.7684L70.2209 82.9171L69.4747 86.0695L58.7218 79.4712L59.5577 76.7684Z" fill="#FF9F43"/>
<path d="M46.7363 80.3989C46.8874 80.0676 51.1612 76.7684 51.1612 76.7684V74.0704L46.7363 77.237V80.3989Z" fill="#FF9F43"/>
<path d="M47.3266 45.6559C45.9661 45.2852 44.5552 45.135 43.1473 45.2109C42.3775 45.2109 41.4614 45.2867 41.06 45.9446C40.9275 46.2055 40.8701 46.4983 40.8943 46.7901C40.9185 47.0819 41.0233 47.3611 41.1969 47.5966C41.5471 48.065 41.9714 48.4727 42.4531 48.8036C42.9728 49.1925 43.4368 49.6512 43.832 50.1668C44.1248 50.5739 44.3468 51.033 44.6679 51.4164C45.5179 52.4293 46.9158 52.7607 48.2286 52.9263C48.8727 52.9503 49.5028 53.122 50.0703 53.4281C50.2084 53.5462 50.3691 53.6348 50.5426 53.6884C50.6918 53.7082 50.8436 53.6869 50.9818 53.6269C52.7149 53.0068 53.4091 50.8105 52.2143 49.4426C50.859 47.8853 49.3337 46.3233 47.3266 45.6559Z" fill="#BA816C"/>
<path d="M30.0001 60.088C28.3661 59.7519 26.6282 59.359 25.4665 58.1568C24.864 57.4822 24.3844 56.7068 24.0498 55.8658C23.7381 55.1747 23.4359 54.4742 23.1525 53.7689C22.947 53.4492 22.8711 53.0628 22.9405 52.6888C23.0098 52.3148 23.2191 51.9816 23.5256 51.7572C24.2056 51.0377 25.0462 50.2899 26.0332 50.3372C26.4345 50.3839 26.8245 50.5008 27.1855 50.6827C28.5267 51.2602 29.9812 51.9371 30.6045 53.2577C30.8666 53.9035 31.0105 54.5914 31.0295 55.2883C31.1145 56.3233 31.1759 57.3584 31.2137 58.3934C31.2515 59.3685 31.1429 60.3294 30.0001 60.088Z" fill="#BA816C"/>
<path d="M24.5031 44.8891C24.5028 45.14 24.439 45.3867 24.3175 45.6061C24.1961 45.8255 24.021 46.0104 23.8088 46.1434C23.5966 46.2764 23.3541 46.3533 23.1042 46.3667C22.8542 46.3802 22.605 46.3298 22.3797 46.2202C22.1545 46.1107 21.9608 45.9457 21.8166 45.7405C21.6725 45.5354 21.5826 45.297 21.5555 45.0476C21.5285 44.7981 21.565 44.5459 21.6618 44.3145C21.7586 44.0831 21.9124 43.8802 22.1088 43.7247" stroke="#FF9F43" stroke-width="1.14" stroke-miterlimit="10" stroke-linecap="round"/>
<path d="M25.9623 48.4722C25.9628 48.7233 25.8997 48.9704 25.7787 49.1903C25.6578 49.4103 25.4831 49.5958 25.271 49.7294C25.059 49.8631 24.8165 49.9405 24.5663 49.9545C24.3162 49.9684 24.0667 49.9184 23.8411 49.8092C23.6155 49.6999 23.4214 49.535 23.2769 49.3299C23.1323 49.1248 23.0422 48.8862 23.0149 48.6366C22.9876 48.387 23.024 48.1346 23.1208 47.903C23.2176 47.6714 23.3715 47.4682 23.5681 47.3126" stroke="#FF9F43" stroke-width="1.14" stroke-miterlimit="10" stroke-linecap="round"/>
</g>
<defs>
<linearGradient id="paint0_linear" x1="44.3232" y1="43.7814" x2="45.2767" y2="50.2939" gradientUnits="userSpaceOnUse">
<stop stop-color="#010101" stop-opacity="0"/>
<stop offset="0.47" stop-color="#010101" stop-opacity="0.47"/>
<stop offset="0.95" stop-color="#010101"/>
</linearGradient>
<linearGradient id="paint1_linear" x1="3498" y1="3343.31" x2="3800.55" y2="3343.31" gradientUnits="userSpaceOnUse">
<stop stop-color="#010101" stop-opacity="0"/>
<stop offset="0.47" stop-color="#010101" stop-opacity="0.47"/>
<stop offset="0.95" stop-color="#010101"/>
</linearGradient>
<linearGradient id="paint2_linear" x1="6086.8" y1="4720.2" x2="4690.26" y2="5120.79" gradientUnits="userSpaceOnUse">
<stop stop-color="#010101" stop-opacity="0"/>
<stop offset="0.47" stop-color="#010101" stop-opacity="0.47"/>
<stop offset="0.95" stop-color="#010101"/>
</linearGradient>
<linearGradient id="paint3_linear" x1="4978.91" y1="23450.2" x2="5675.69" y2="23450.2" gradientUnits="userSpaceOnUse">
<stop stop-color="#010101" stop-opacity="0"/>
<stop offset="0.47" stop-color="#010101" stop-opacity="0.47"/>
<stop offset="0.95" stop-color="#010101"/>
</linearGradient>
<linearGradient id="paint4_linear" x1="5719.26" y1="24222.1" x2="6485.84" y2="24222.1" gradientUnits="userSpaceOnUse">
<stop stop-color="#010101" stop-opacity="0"/>
<stop offset="0.47" stop-color="#010101" stop-opacity="0.47"/>
<stop offset="0.95" stop-color="#010101"/>
</linearGradient>
<linearGradient id="paint5_linear" x1="6002.83" y1="9827.09" x2="4507.7" y2="9730.95" gradientUnits="userSpaceOnUse">
<stop stop-color="#010101" stop-opacity="0"/>
<stop offset="0.47" stop-color="#010101" stop-opacity="0.47"/>
<stop offset="0.95" stop-color="#010101"/>
</linearGradient>
<linearGradient id="paint6_linear" x1="6762.99" y1="10428" x2="8414.51" y2="10577.6" gradientUnits="userSpaceOnUse">
<stop stop-color="#010101" stop-opacity="0"/>
<stop offset="0.47" stop-color="#010101" stop-opacity="0.47"/>
<stop offset="0.95" stop-color="#010101"/>
</linearGradient>
<linearGradient id="paint7_linear" x1="7944.35" y1="3961.65" x2="9426.2" y2="3961.65" gradientUnits="userSpaceOnUse">
<stop stop-color="#010101" stop-opacity="0"/>
<stop offset="0.47" stop-color="#010101" stop-opacity="0.47"/>
<stop offset="0.95" stop-color="#010101"/>
</linearGradient>
<clipPath id="clip0">
<rect width="120" height="101" fill="white"/>
</clipPath>
</defs>
</svg>
