<svg width="110" height="82" viewBox="0 0 110 82" fill="none" xmlns="http://www.w3.org/2000/svg">
<g clip-path="url(#clip0)">
<path opacity="0.18" d="M14.2966 18.8032C9.27385 21.0723 3.53058 23.2191 1.1165 28.1515C-0.935946 32.338 0.0895893 37.4256 2.17793 41.5943C4.18504 45.5946 7.08252 49.0868 10.65 51.8051C13.6175 54.0618 17.2145 55.9916 18.5713 59.4543C19.8467 62.7082 18.7452 66.3893 19.2117 69.852C20.1917 77.1207 28.0647 81.832 35.4326 81.994C42.8004 82.1561 49.7666 78.9722 56.5271 76.0439C63.2877 73.1155 70.5382 70.3451 77.8342 71.3807C84.1089 72.2708 90.2566 75.9464 96.3946 74.4025C101.013 73.2405 104.431 69.3204 106.709 65.1559C110.744 57.78 111.725 47.6955 105.881 41.6396C103.769 39.4529 100.857 37.8582 99.6796 35.0617C98.6652 32.6539 99.1855 29.922 99.1828 27.3109C99.1828 20.5709 95.416 14.1373 90.0316 10.0469C84.6472 5.95654 77.8108 4.0487 71.042 3.79734C66.5382 3.6284 61.9736 4.14759 57.5568 3.23282C49.4464 1.55162 42.7535 -3.22279 35.9419 3.42512C29.4064 9.80381 22.7742 14.971 14.2966 18.8032Z" fill="#FF9F43"/>
<path d="M72.635 14.2642L56.9097 29.7192L34.4114 11.0048V7.86761C36.5273 7.39374 40.4638 9.7727 42.8434 9.56529C52.6433 8.71233 63.8814 7.68081 72.6308 11.127L72.635 14.2642Z" fill="#FF9F43"/>
<path d="M72.635 14.2642L56.9097 29.7192L34.4114 11.0048V7.86761C36.5273 7.39374 40.4638 9.7727 42.8434 9.56529C52.6433 8.71233 63.8814 7.68081 72.6308 11.127L72.635 14.2642Z" fill="url(#paint0_linear)"/>
<path d="M72.6349 11.1256L58.1532 25.3596L56.911 26.582L34.4127 7.86623C37.1776 7.14664 39.9996 6.6655 42.8475 6.42814C43.6931 6.3558 44.5415 6.30132 45.3927 6.26469C54.7964 5.86225 64.4017 7.7069 72.6349 11.1256Z" fill="#FF9F43"/>
<path d="M66.1145 66.6865C45.3802 68.4899 22.9358 58.9548 15.9834 45.3871C14.1407 41.7925 13.5721 38.2763 14.1145 35.0141C14.4422 36.9488 15.0728 38.8203 15.9834 40.5605C22.9358 54.1282 45.383 63.6633 66.1131 61.8599C81.354 60.533 91.4271 53.4497 92.9358 44.4009C92.2415 56.3905 83.9765 65.133 66.1145 66.6865Z" fill="#FF9F43"/>
<path d="M66.1145 66.6865C45.3802 68.4899 22.9358 58.9548 15.9834 45.3871C14.1407 41.7925 13.5721 38.2763 14.1145 35.0141C14.4422 36.9488 15.0728 38.8203 15.9834 40.5605C22.9358 54.1282 45.383 63.6633 66.1131 61.8599C81.354 60.533 91.4271 53.4497 92.9358 44.4009C92.2415 56.3905 83.9765 65.133 66.1145 66.6865Z" fill="url(#paint1_linear)"/>
<path d="M93.1263 42.3722C93.111 43.0516 93.0474 43.729 92.9358 44.3995C92.3009 48.2097 90.1463 51.6792 86.7246 54.506C82.0317 58.3944 74.9358 61.0907 66.1145 61.8585C50.345 63.232 33.5873 58.0428 23.4078 49.5118C20.2015 46.8265 17.648 43.8157 15.9834 40.5605C15.0722 38.8207 14.442 36.949 14.1159 35.0141C12.6142 25.6535 19.7915 17.5373 32.5051 14.1666L55.0034 32.881L70.7246 17.426C80.0013 21.2802 87.5348 27.1342 91.0669 34.0279C92.5341 36.889 93.1939 39.6951 93.1263 42.3722Z" fill="#FF9F43"/>
<path d="M93.1264 42.3722L54.9994 32.881L70.7247 17.426C80.0015 21.2802 87.5349 27.1328 91.067 34.0279C92.5343 36.889 93.194 39.6951 93.1264 42.3722Z" fill="#FF9F43"/>
<path d="M93.1264 42.3722L54.9994 32.881L70.7247 17.426C80.0015 21.2802 87.5349 27.1328 91.067 34.0279C92.5343 36.889 93.194 39.6951 93.1264 42.3722Z" fill="url(#paint2_linear)"/>
<path d="M93.1264 42.3722C93.1111 43.0516 93.0474 43.729 92.9359 44.3995C92.2996 48.2111 90.145 51.6792 86.7247 54.506L54.9994 32.881L93.1264 42.3722Z" fill="#FF9F43"/>
<path d="M93.1264 42.3722C93.1111 43.0516 93.0474 43.729 92.9359 44.3995C92.2996 48.2111 90.145 51.6792 86.7247 54.506L54.9994 32.881L93.1264 42.3722Z" fill="url(#paint3_linear)"/>
<path d="M54.9993 32.881L23.4065 49.5132C20.2015 46.8265 17.6481 43.8157 15.9835 40.5605C15.0723 38.8207 14.4421 36.949 14.116 35.0141L54.9993 32.881Z" fill="url(#paint4_linear)"/>
<path opacity="0.18" d="M58.1532 25.3596L56.911 26.582L34.4127 7.86623C37.1776 7.14664 39.9996 6.6655 42.8475 6.42814C43.6931 6.3558 44.5415 6.30132 45.3927 6.26469C45.3927 6.26469 39.3596 7.50087 42.7702 10.8427C46.1808 14.1845 58.1532 25.3596 58.1532 25.3596Z" fill="white"/>
<path opacity="0.18" d="M18.8322 21.4395C18.8322 21.4395 17.6673 29.5859 22.559 31.0268C27.4506 32.4676 54.9951 32.881 54.9951 32.881L14.1117 35.0141C14.1117 35.0141 11.8702 28.4665 18.8322 21.4395Z" fill="white"/>
<path opacity="0.18" d="M23.4065 49.5132C23.4065 49.5132 75.5072 62.1497 88.4016 41.1964L93.1263 42.3735C93.1263 42.3735 93.3057 56.2243 74.6722 60.3874C56.0386 64.5506 35.6025 60.6141 23.4065 49.5132Z" fill="white"/>
<path d="M107.637 62.923C106.997 64.4448 106.248 65.9187 105.395 67.3334C105.395 67.3334 104.374 65.3995 102.148 61.4959C101.204 59.8367 100.175 58.9919 99.1456 58.5455C97.7529 57.9412 96.3547 58.0607 95.1429 57.8684C93.0283 57.5374 90.9137 56.3314 90.9137 56.3314C90.9137 56.3314 86.0152 53.2176 84.2347 52.0103C82.4541 50.8029 81.4272 47.6768 83.7819 47.4556C86.1367 47.2345 92.1684 49.1354 92.1684 49.1354C95.3913 39.3119 88.5618 29.9595 88.3892 29.7233L88.403 29.7329L88.4514 29.7755L88.4886 29.8071L88.5825 29.8881C89.2367 30.4471 91.4024 32.3014 93.3209 33.9634L93.3858 34.0197C94.4817 34.9688 95.4879 35.8506 96.0801 36.3849C97.9158 38.0455 109.491 51.4224 109.491 51.4224C110.338 55.2628 109.003 59.7089 107.637 62.923Z" fill="url(#paint5_linear)"/>
<path d="M92.1712 49.3099C95.3941 39.4877 88.5646 30.134 88.392 29.8977L88.4058 29.9087L88.4541 29.9499L88.4914 29.9815L88.5853 30.0625L93.3237 34.1392L93.3886 34.1955C93.3886 34.1955 95.5514 36.6294 94.715 44.1152C94.4679 46.3362 92.2499 49.1533 92.1712 49.3099Z" fill="url(#paint6_linear)"/>
<path d="M107.637 63.1084C106.997 64.6298 106.248 66.1034 105.395 67.5174C105.395 67.5174 104.374 65.5835 102.148 61.6799C101.204 60.0207 100.175 59.1774 99.1456 58.7296C99.3858 58.7914 104.969 60.2405 106.711 62.0082C107.046 62.3519 107.356 62.7196 107.637 63.1084Z" fill="url(#paint7_linear)"/>
<path d="M84.6473 49.1052C85.1705 49.0214 85.7032 49.1533 86.2015 49.3291C86.6235 49.48 87.0328 49.6637 87.4258 49.8785C87.5845 49.9651 87.7557 50.0749 87.793 50.2508C87.8065 50.3807 87.7795 50.5116 87.7157 50.6257C87.4537 51.214 87.1194 51.7676 86.7205 52.274C86.6896 52.3228 86.645 52.3615 86.5921 52.3852C86.5445 52.3969 86.4948 52.3969 86.4472 52.3852C85.4057 52.239 84.4403 51.7598 83.6963 51.0199C82.8972 50.1944 83.6094 49.2714 84.6473 49.1052Z" fill="url(#paint8_linear)"/>
</g>
<defs>
<linearGradient id="paint0_linear" x1="50.2402" y1="43.8913" x2="53.7629" y2="8.3422" gradientUnits="userSpaceOnUse">
<stop/>
<stop offset="0.99" stop-opacity="0"/>
</linearGradient>
<linearGradient id="paint1_linear" x1="35560" y1="1969.54" x2="33512.3" y2="21248.6" gradientUnits="userSpaceOnUse">
<stop/>
<stop offset="0.99" stop-opacity="0"/>
</linearGradient>
<linearGradient id="paint2_linear" x1="7050.26" y1="9362.25" x2="25629.9" y2="-1504.19" gradientUnits="userSpaceOnUse">
<stop/>
<stop offset="0.99" stop-opacity="0"/>
</linearGradient>
<linearGradient id="paint3_linear" x1="22076.4" y1="3443.78" x2="20532.7" y2="11646.7" gradientUnits="userSpaceOnUse">
<stop/>
<stop offset="0.99" stop-opacity="0"/>
</linearGradient>
<linearGradient id="paint4_linear" x1="16634.4" y1="-106.496" x2="14115.2" y2="10026.7" gradientUnits="userSpaceOnUse">
<stop/>
<stop offset="0.99" stop-opacity="0"/>
</linearGradient>
<linearGradient id="paint5_linear" x1="82.4072" y1="48.5256" x2="109.758" y2="48.5256" gradientUnits="userSpaceOnUse">
<stop stop-color="#ECC4D7"/>
<stop offset="0.42" stop-color="#EFD4D1"/>
<stop offset="1" stop-color="#F2EAC9"/>
</linearGradient>
<linearGradient id="paint6_linear" x1="4659.78" y1="5257.59" x2="777.5" y2="5780.42" gradientUnits="userSpaceOnUse">
<stop stop-color="#ECC4D7"/>
<stop offset="0.42" stop-color="#EFD4D1"/>
<stop offset="1" stop-color="#F2EAC9"/>
</linearGradient>
<linearGradient id="paint7_linear" x1="6198.59" y1="4097.37" x2="6720.98" y2="4097.37" gradientUnits="userSpaceOnUse">
<stop stop-color="#ECC4D7"/>
<stop offset="0.42" stop-color="#EFD4D1"/>
<stop offset="1" stop-color="#F2EAC9"/>
</linearGradient>
<linearGradient id="paint8_linear" x1="2766.61" y1="1273.43" x2="2909.73" y2="1273.43" gradientUnits="userSpaceOnUse">
<stop stop-color="#ECC4D7"/>
<stop offset="0.42" stop-color="#EFD4D1"/>
<stop offset="1" stop-color="#F2EAC9"/>
</linearGradient>
<clipPath id="clip0">
<rect width="110" height="82" fill="white"/>
</clipPath>
</defs>
</svg>
