<svg width="102" height="94" viewBox="0 0 102 94" fill="none" xmlns="http://www.w3.org/2000/svg">
<g clip-path="url(#clip0)">
<path opacity="0.18" d="M17.3901 93.907H84.0085C84.0085 93.907 100.193 95.6186 98.6608 77.6475C97.1286 59.6765 93.2179 62.1289 97.7518 48.8933C102.286 35.6577 104.795 26.3072 96.8565 21.0523C88.918 15.7974 74.3555 -8.38814 46.8689 3.02386C19.3822 14.4359 14.8401 10.5535 11.6587 12.3798C8.47733 14.2062 -6.96691 14.4331 3.70935 44.3302C14.3856 74.2272 -7.53569 89.6282 17.3901 93.907Z" fill="#FF9F43"/>
<path d="M54.3692 17.2274C54.2514 17.1918 54.1268 17.1859 54.0062 17.2102C53.8856 17.2345 53.7729 17.2883 53.6779 17.3668C53.5782 17.4886 53.5075 17.6317 53.4711 17.7851C53.2634 18.5764 53.3769 19.4183 53.7868 20.1255C54.1896 20.7735 54.8427 21.0797 55.387 20.8746C55.5342 20.8271 55.6609 20.7307 55.7462 20.6012C55.8834 20.3316 55.9256 20.0232 55.866 19.7263C55.8065 19.4196 55.7153 19.12 55.5938 18.8323C55.2183 17.7578 55.2183 17.334 54.3692 17.2274Z" fill="url(#paint0_linear)"/>
<path d="M50.1945 27.5621C50.1945 27.5621 53.169 27.4637 60.3074 27.8629C67.4457 28.2621 72.1049 29.2053 75.3788 30.2033C78.6527 31.2012 81.5238 31.4965 83.1104 35.0836C84.697 38.6707 86.4823 61.2787 81.2272 66.4597C75.9721 71.6408 74.0888 68.7509 74.0888 68.7509L72.5022 86.279C72.5022 86.279 42.1635 85.981 37.3955 79.9907C37.3955 79.9907 47.3696 62.5719 44.9829 57.2678C41.9212 50.4518 45.7231 42.5038 45.7231 42.5038C45.7231 42.5038 31.743 63.8678 28.9181 63.1214C26.0933 62.375 7.95752 46.5393 7.95752 46.5393L11.9744 40.8607L26.3981 48.4805C26.3981 48.4805 43.5514 25.7194 50.1945 27.5621Z" fill="#FF9F43"/>
<path d="M75.787 15.8138C76.3313 16.6341 76.4456 17.6867 76.3313 18.6709C76.1589 19.864 75.8142 21.0255 75.308 22.1186C74.9406 22.999 74.5406 23.8848 74.4344 24.8335C74.3283 25.7823 74.5705 26.8294 75.2944 27.45C74.7493 27.7018 74.1289 27.7344 73.5606 27.5412C72.9923 27.348 72.5192 26.9437 72.2382 26.4111C72.3197 26.6771 72.33 26.96 72.2681 27.2313C71.5941 26.84 71.0238 26.2914 70.6053 25.6319L70.1536 26.0584C68.7928 24.3414 67.7614 22.2498 67.8158 20.0599C67.8621 18.239 68.8201 16.3142 70.4584 15.4393C72.0042 14.6218 74.6766 14.1242 75.787 15.8138Z" fill="#3E3E54"/>
<path d="M75.787 15.8138C76.3313 16.6341 76.4456 17.6867 76.3313 18.6709C76.1589 19.864 75.8142 21.0255 75.308 22.1186C74.9406 22.999 74.5406 23.8848 74.4344 24.8335C74.3283 25.7823 74.5705 26.8294 75.2944 27.45C74.7493 27.7018 74.1289 27.7344 73.5606 27.5412C72.9923 27.348 72.5192 26.9437 72.2382 26.4111C72.3197 26.6771 72.33 26.96 72.2681 27.2313C71.5941 26.84 71.0238 26.2914 70.6053 25.6319L70.1536 26.0584C68.7928 24.3414 67.7614 22.2498 67.8158 20.0599C67.8621 18.239 68.8201 16.3142 70.4584 15.4393C72.0042 14.6218 74.6766 14.1242 75.787 15.8138Z" fill="url(#paint1_linear)"/>
<path d="M37.4417 35.4281L39.4855 33.6044L39.3739 47.2966L45.734 42.5038L36.4185 55.5125L37.4417 35.4281Z" fill="url(#paint2_linear)"/>
<path d="M59.1997 27.0618C59.1997 27.0618 56.266 32.6912 60.8326 35.2011C66.9667 38.5668 66.6265 24.191 66.6265 24.191L59.1997 27.0618Z" fill="url(#paint3_linear)"/>
<path d="M59.6706 30.3235C60.0354 30.5352 60.4447 30.6579 60.8653 30.6817C62.5581 30.8239 64.2535 29.9189 65.255 28.5409C66.2307 27.1199 66.6485 25.3864 66.428 23.6743C66.428 23.6005 66.3926 23.5103 66.3191 23.5048C66.2865 23.5061 66.2551 23.5176 66.2293 23.5376C65.3415 24.0835 64.4093 24.5527 63.4425 24.9402C62.6887 25.2409 61.9158 25.487 61.1647 25.8069C60.5496 26.0639 59.6053 26.3974 59.178 26.9388C58.4133 27.9012 58.6228 29.6646 59.6706 30.3235Z" fill="url(#paint4_linear)"/>
<path d="M73.9554 68.3873C71.0283 65.3405 67.7849 62.6174 64.2807 60.2643C64.4603 59.2445 65.323 58.5173 66.0306 57.7654C66.9452 56.7933 67.6699 55.6571 68.1669 54.4162C70.6434 56.0748 73.1526 57.687 75.6944 59.2527C75.542 55.9117 75.5194 52.5698 75.6264 49.2269C73.7214 50.2494 71.7429 51.2173 69.827 52.2344C68.7352 52.7745 67.6957 53.4152 66.7218 54.1482C65.1422 55.4792 63.9249 57.1914 63.1839 59.1242C62.9254 59.764 62.7022 60.4639 62.8546 61.1365C63.007 61.8091 63.4642 62.2957 63.9432 62.7332C64.6559 63.3728 65.456 63.9068 66.3191 64.319C67.0348 64.6607 67.7968 64.9177 68.4581 65.3552C69.3371 65.9403 69.9903 66.8097 70.8067 67.4795C71.6232 68.1494 72.9812 68.7919 73.9554 68.3873Z" fill="url(#paint5_linear)"/>
<path d="M64.5256 52.9315C63.6176 52.5974 62.6619 52.4127 61.6953 52.3847C61.5075 52.803 62.079 53.3717 61.7579 53.6998C61.6481 53.7893 61.5127 53.841 61.3715 53.8475C59.1545 54.1726 56.9132 54.2998 54.674 54.2275C54.3989 54.199 54.121 54.2278 53.8575 54.3123C53.7268 54.3565 53.6131 54.4406 53.5321 54.5528C53.4512 54.665 53.407 54.7998 53.4058 54.9384C53.437 55.117 53.5215 55.2819 53.648 55.4114C54.6767 56.6499 56.2061 57.3908 57.771 57.7435C59.3358 58.0962 60.9578 58.0989 62.5634 58.0825C64.0276 58.0689 65.5707 58.0607 66.847 58.7825C67.2051 59.023 67.5819 59.2342 67.9737 59.414C68.1714 59.5011 68.389 59.5322 68.603 59.5037C68.817 59.4753 69.0191 59.3885 69.1875 59.2527C69.3239 59.095 69.4134 58.9018 69.4456 58.6953C69.4779 58.4889 69.4516 58.2774 69.3698 58.0853C69.016 57.1311 68.0417 56.073 67.4076 55.2856C66.632 54.3068 65.6986 53.4127 64.5256 52.9315Z" fill="url(#paint6_linear)"/>
<path d="M5.82676 19.8465L35.272 21.1381C36.0665 21.1773 36.8133 21.5308 37.3491 22.1215C37.8849 22.7121 38.1662 23.4919 38.1315 24.2903L36.3437 65.4261C36.3077 66.2549 35.9455 67.0353 35.3367 67.5957C34.7279 68.1562 33.9225 68.4507 33.0976 68.4145L3.87524 67.1327C3.05032 67.0965 2.27349 66.7326 1.71565 66.121C1.15781 65.5094 0.864651 64.7002 0.900668 63.8715L2.68841 22.7356C2.70565 22.3389 2.8005 21.9495 2.96755 21.5896C3.1346 21.2297 3.37057 20.9063 3.662 20.6381C3.95342 20.3698 4.29459 20.1618 4.66602 20.026C5.03745 19.8902 5.43187 19.8292 5.82676 19.8465Z" fill="#FF9F43"/>
<path d="M36.1198 23.4337L5.10034 22.0731L3.27402 64.0967L34.2935 65.4573L36.1198 23.4337Z" fill="white"/>
<path d="M27.3068 17.6728L15.6429 17.1612C14.6053 17.1157 13.7274 17.9238 13.6821 18.9662L13.5819 21.2716C13.5366 22.314 14.3411 23.1959 15.3786 23.2415L27.0426 23.7531C28.0802 23.7986 28.958 22.9904 29.0033 21.948L29.1035 19.6427C29.1488 18.6003 28.3444 17.7183 27.3068 17.6728Z" fill="#FF9F43"/>
<path d="M27.3068 17.6728L15.6429 17.1612C14.6053 17.1157 13.7274 17.9238 13.6821 18.9662L13.5819 21.2716C13.5366 22.314 14.3411 23.1959 15.3786 23.2415L27.0426 23.7531C28.0802 23.7986 28.958 22.9904 29.0033 21.948L29.1035 19.6427C29.1488 18.6003 28.3444 17.7183 27.3068 17.6728Z" fill="url(#paint7_linear)"/>
<path d="M26.8145 49.7628C25.9588 51.0026 24.7995 51.9999 23.4483 52.6584C22.0972 53.3169 20.6 53.6143 19.1011 53.5221C17.6022 53.4298 16.1523 52.9509 14.8913 52.1316C13.6303 51.3123 12.6008 50.1802 11.9023 48.8447C11.2037 47.5092 10.8596 46.0154 10.9032 44.5073C10.9468 42.9993 11.3766 41.528 12.1512 40.2355C12.9257 38.943 14.0188 37.8729 15.325 37.1285C16.6312 36.3841 18.1063 35.9905 19.6081 35.9858L19.227 44.7348L26.8145 49.7628Z" fill="#FF9F43"/>
<path d="M25.4183 36.3795L20.0244 43.5701L20.4054 34.8211C20.5415 34.8211 20.6776 34.8211 20.8136 34.8211C22.465 34.8889 24.0627 35.4296 25.4183 36.3795Z" fill="#FF9F43"/>
<path d="M25.4183 36.3795L20.0244 43.5701L20.4054 34.8211C20.5415 34.8211 20.6776 34.8211 20.8136 34.8211C22.465 34.8889 24.0627 35.4296 25.4183 36.3795Z" fill="url(#paint8_linear)"/>
<path d="M29.3863 44.8633C29.3197 46.52 28.7813 48.1227 27.835 49.4812L20.2504 44.4642L25.6416 37.2736C26.8544 38.1166 27.8342 39.2553 28.4892 40.5828C29.1442 41.9103 29.4529 43.3832 29.3863 44.8633Z" fill="#FF9F43"/>
<path d="M29.3863 44.8633C29.3197 46.52 28.7813 48.1227 27.835 49.4812L20.2504 44.4642L25.6416 37.2736C26.8544 38.1166 27.8342 39.2553 28.4892 40.5828C29.1442 41.9103 29.4529 43.3832 29.3863 44.8633Z" fill="url(#paint9_linear)"/>
<path d="M29.3863 44.8633C29.3197 46.52 28.7813 48.1227 27.835 49.4812L20.2504 44.4642L25.6416 37.2736C26.8544 38.1166 27.8342 39.2553 28.4892 40.5828C29.1442 41.9103 29.4529 43.3832 29.3863 44.8633Z" fill="url(#paint10_linear)"/>
<path d="M7.9911 52.6978L6.22656 52.6204L6.14323 54.5378L7.90777 54.6152L7.9911 52.6978Z" fill="#FF9F43"/>
<path d="M7.87575 55.3587L6.11121 55.2813L6.02787 57.1988L7.79242 57.2762L7.87575 55.3587Z" fill="#FF9F43"/>
<path d="M7.87575 55.3587L6.11121 55.2813L6.02787 57.1988L7.79242 57.2762L7.87575 55.3587Z" fill="url(#paint11_linear)"/>
<path d="M7.76039 58.0195L5.99585 57.9421L5.91252 59.8596L7.67706 59.937L7.76039 58.0195Z" fill="#FF9F43"/>
<path d="M7.64491 60.6804L5.88037 60.603L5.79704 62.5205L7.56158 62.5979L7.64491 60.6804Z" fill="#FF9F43"/>
<path d="M3.71478 36.9482C3.99384 38.4727 3.65908 40.0461 2.78405 41.3227C2.5119 41.6863 2.1064 42.0226 1.62471 42.0008C1.44612 41.9843 1.2728 41.9312 1.1155 41.8446C0.958206 41.7581 0.820285 41.64 0.7103 41.4977C0.0462656 40.6966 0.201388 39.5838 0.389168 38.6132C0.519093 37.7681 0.750281 36.9419 1.0777 36.1526C1.30902 35.655 1.89413 34.9141 2.58266 35.1984C3.21676 35.4472 3.57599 36.3768 3.71478 36.9482Z" fill="url(#paint12_linear)"/>
<path d="M38.3997 81.21C38.3997 81.21 34.9924 88.8217 34.9924 94L71.8191 93.8387L71.3184 86.1833C71.3184 86.1833 43.1568 83.4 38.3997 81.21Z" fill="#3E3E54"/>
<path d="M54.8998 6.09697C56.5871 3.40118 59.6895 1.53108 62.8492 1.74707C64.482 1.85917 66.0278 2.49074 67.5382 3.1141C69.5983 3.9726 71.7891 4.94866 72.9403 6.86798C73.6914 8.12018 73.8955 9.62666 73.9037 11.0866C73.9037 13.0005 73.5989 14.9608 72.6328 16.6095C71.6666 18.2581 69.9766 19.5486 68.0771 19.688C66.8524 19.7782 65.6441 19.3982 64.4739 19.0236C61.5429 18.0859 56.4483 17.509 54.1786 15.2452C51.9089 12.9814 53.52 8.36352 54.8998 6.09697Z" fill="#3E3E54"/>
<path d="M54.8998 6.09697C56.5871 3.40118 59.6895 1.53108 62.8492 1.74707C64.482 1.85917 66.0278 2.49074 67.5382 3.1141C69.5983 3.9726 71.7891 4.94866 72.9403 6.86798C73.6914 8.12018 73.8955 9.62666 73.9037 11.0866C73.9037 13.0005 73.5989 14.9608 72.6328 16.6095C71.6666 18.2581 69.9766 19.5486 68.0771 19.688C66.8524 19.7782 65.6441 19.3982 64.4739 19.0236C61.5429 18.0859 56.4483 17.509 54.1786 15.2452C51.9089 12.9814 53.52 8.36352 54.8998 6.09697Z" fill="url(#paint13_linear)"/>
<path d="M53.9636 13.9656C53.9636 13.9656 54.4589 26.7173 61.2979 27.7125C68.1369 28.7077 68.7357 14.466 68.7357 14.466C68.7357 14.466 62.4899 0.719056 53.9636 13.9656Z" fill="url(#paint14_linear)"/>
<path d="M70.1862 17.4652C70.1971 18.1042 70.0295 18.7334 69.7024 19.2814C69.3753 19.8294 68.9018 20.2744 68.3356 20.5657C67.3097 21.0742 67.7614 18.2444 67.9927 17.7113C68.4064 16.7762 70.1291 15.8029 70.1862 17.4652Z" fill="url(#paint15_linear)"/>
<path d="M59.7086 12.6369C60.0951 12.4564 60.2121 11.8166 60.6312 11.7674C60.8135 12.1857 60.5659 12.7599 60.8516 13.1044C60.9984 13.2529 61.1896 13.3489 61.3959 13.3778C62.6472 13.6919 63.8534 14.1651 64.9855 14.7858C65.4672 15.0592 65.968 15.3518 66.5095 15.3326C66.7817 15.319 67.0538 15.2288 67.2987 15.3326C67.677 15.5131 67.7315 16.0544 67.7287 16.4974V19.0209C68.1659 18.4925 68.5514 17.923 68.8799 17.3203C69.6223 16.0962 70.1481 14.7521 70.4339 13.3477C70.6842 11.9315 70.559 10.4004 69.8896 9.15365C69.1221 7.74561 67.7124 6.85977 66.2673 6.37584C57.5859 3.48867 55.9503 4.8721 55.1094 5.28221C53.6099 5.99581 51.5933 10.5289 53.2642 13.2301C53.6588 13.8672 55.7652 11.6881 56.4211 11.9971C56.9288 12.1863 57.4552 12.3202 57.9914 12.3963C58.435 12.4892 59.246 12.8528 59.7086 12.6369Z" fill="#3E3E54"/>
<path d="M7.71632 58.0312L5.95178 57.9538L5.86845 59.8713L7.63299 59.9487L7.71632 58.0312Z" fill="url(#paint16_linear)"/>
<path d="M7.71632 58.0312L5.95178 57.9538L5.86845 59.8713L7.63299 59.9487L7.71632 58.0312Z" fill="url(#paint17_linear)"/>
<path d="M7.62965 60.6551L5.86511 60.5777L5.78178 62.4952L7.54632 62.5726L7.62965 60.6551Z" fill="url(#paint18_linear)"/>
<path d="M7.62965 60.6551L5.86511 60.5777L5.78178 62.4952L7.54632 62.5726L7.62965 60.6551Z" fill="url(#paint19_linear)"/>
<path d="M7.62965 60.6551L5.86511 60.5777L5.78178 62.4952L7.54632 62.5726L7.62965 60.6551Z" fill="url(#paint20_linear)"/>
<path opacity="0.34" d="M22.2498 61.8186L9.0995 61.2233C8.86677 61.2127 8.6696 61.3937 8.65911 61.6276L8.65617 61.6931C8.64569 61.9269 8.82585 62.125 9.05858 62.1355L22.2089 62.7308C22.4416 62.7414 22.6388 62.5604 22.6493 62.3266L22.6522 62.261C22.6627 62.0272 22.4825 61.8291 22.2498 61.8186Z" fill="#FF9F43"/>
<path opacity="0.34" d="M22.2491 59.344L9.09877 58.7487C8.86604 58.7382 8.66887 58.9192 8.65838 59.153L8.65544 59.2185C8.64495 59.4524 8.82512 59.6504 9.05785 59.661L22.2082 60.2563C22.4409 60.2668 22.6381 60.0858 22.6486 59.852L22.6515 59.7864C22.662 59.5526 22.4818 59.3546 22.2491 59.344Z" fill="#FF9F43"/>
<path opacity="0.34" d="M22.2482 56.8722L9.09791 56.2769C8.86518 56.2664 8.66801 56.4474 8.65753 56.6812L8.65459 56.7467C8.6441 56.9805 8.82426 57.1786 9.057 57.1891L22.2073 57.7844C22.44 57.795 22.6372 57.614 22.6477 57.3802L22.6506 57.3146C22.6611 57.0808 22.481 56.8827 22.2482 56.8722Z" fill="#FF9F43"/>
<path opacity="0.34" d="M22.2501 54.4004L9.09974 53.8051C8.86701 53.7945 8.66984 53.9755 8.65936 54.2093L8.65642 54.2749C8.64593 54.5087 8.8261 54.7068 9.05883 54.7173L22.2091 55.3126C22.4419 55.3232 22.639 55.1422 22.6495 54.9083L22.6525 54.8428C22.663 54.609 22.4828 54.4109 22.2501 54.4004Z" fill="#FF9F43"/>
<path d="M68.7466 18.4796C68.9425 18.0859 68.948 17.5555 69.3127 17.3121C69.4694 17.5161 69.5442 17.7717 69.5222 18.0284C69.534 18.3856 69.4651 18.7408 69.3208 19.0674C69.1736 19.3968 68.9026 19.6543 68.567 19.7837C68.4904 19.8165 68.4071 19.8302 68.3242 19.8235C68.2412 19.8168 68.1611 19.79 68.0907 19.7454C68.0384 19.6983 67.9999 19.6378 67.9793 19.5704C67.9587 19.5029 67.9568 19.4311 67.9737 19.3627C68.0608 18.9744 68.567 18.8377 68.7466 18.4796Z" fill="url(#paint21_linear)"/>
</g>
<defs>
<linearGradient id="paint0_linear" x1="53.3677" y1="19.0701" x2="55.8878" y2="19.0701" gradientUnits="userSpaceOnUse">
<stop stop-color="#E5C5D5"/>
<stop offset="0.42" stop-color="#EAD4D1"/>
<stop offset="1" stop-color="#F0E9CB"/>
</linearGradient>
<linearGradient id="paint1_linear" x1="75.6183" y1="22.2744" x2="71.1398" y2="19.7822" gradientUnits="userSpaceOnUse">
<stop stop-opacity="0"/>
<stop offset="0.99"/>
</linearGradient>
<linearGradient id="paint2_linear" x1="1477.44" y1="1874.98" x2="1055.86" y2="6419.15" gradientUnits="userSpaceOnUse">
<stop stop-opacity="0"/>
<stop offset="0.99"/>
</linearGradient>
<linearGradient id="paint3_linear" x1="2224.9" y1="1456.55" x2="2481.66" y2="1456.55" gradientUnits="userSpaceOnUse">
<stop stop-color="#E5C5D5"/>
<stop offset="0.42" stop-color="#EAD4D1"/>
<stop offset="1" stop-color="#F0E9CB"/>
</linearGradient>
<linearGradient id="paint4_linear" x1="2178.14" y1="1014.58" x2="2215.74" y2="539.873" gradientUnits="userSpaceOnUse">
<stop stop-opacity="0"/>
<stop offset="0.99"/>
</linearGradient>
<linearGradient id="paint5_linear" x1="3575.84" y1="3905.52" x2="5364.38" y2="4721.32" gradientUnits="userSpaceOnUse">
<stop stop-opacity="0"/>
<stop offset="0.99"/>
</linearGradient>
<linearGradient id="paint6_linear" x1="3928.02" y1="1616.68" x2="4874.84" y2="1616.68" gradientUnits="userSpaceOnUse">
<stop stop-color="#E5C5D5"/>
<stop offset="0.42" stop-color="#EAD4D1"/>
<stop offset="1" stop-color="#F0E9CB"/>
</linearGradient>
<linearGradient id="paint7_linear" x1="1933.87" y1="428.036" x2="1928.37" y2="782.828" gradientUnits="userSpaceOnUse">
<stop stop-opacity="0"/>
<stop offset="0.99"/>
</linearGradient>
<linearGradient id="paint8_linear" x1="9.45974" y1="52.1059" x2="34.5842" y2="22.2111" gradientUnits="userSpaceOnUse">
<stop stop-opacity="0"/>
<stop offset="0.83" stop-opacity="0.69"/>
<stop offset="0.99"/>
</linearGradient>
<linearGradient id="paint9_linear" x1="1757.76" y1="1735.11" x2="832.528" y2="2245.62" gradientUnits="userSpaceOnUse">
<stop stop-opacity="0"/>
<stop offset="0.99"/>
</linearGradient>
<linearGradient id="paint10_linear" x1="1757.76" y1="1735.11" x2="832.528" y2="2245.62" gradientUnits="userSpaceOnUse">
<stop stop-opacity="0"/>
<stop offset="0.99"/>
</linearGradient>
<linearGradient id="paint11_linear" x1="130.663" y1="455.4" x2="131.101" y2="493.44" gradientUnits="userSpaceOnUse">
<stop stop-opacity="0"/>
<stop offset="0.83" stop-opacity="0.69"/>
<stop offset="0.99"/>
</linearGradient>
<linearGradient id="paint12_linear" x1="164.824" y1="1104.92" x2="212.235" y2="1104.92" gradientUnits="userSpaceOnUse">
<stop stop-color="#E5C5D5"/>
<stop offset="0.42" stop-color="#EAD4D1"/>
<stop offset="1" stop-color="#F0E9CB"/>
</linearGradient>
<linearGradient id="paint13_linear" x1="5843.82" y1="1073.72" x2="6095.07" y2="527.435" gradientUnits="userSpaceOnUse">
<stop stop-opacity="0"/>
<stop offset="0.99"/>
</linearGradient>
<linearGradient id="paint14_linear" x1="3649.33" y1="1583.73" x2="4451.16" y2="1583.73" gradientUnits="userSpaceOnUse">
<stop stop-color="#E5C5D5"/>
<stop offset="0.42" stop-color="#EAD4D1"/>
<stop offset="1" stop-color="#F0E9CB"/>
</linearGradient>
<linearGradient id="paint15_linear" x1="827.76" y1="348.045" x2="810.975" y2="349.872" gradientUnits="userSpaceOnUse">
<stop stop-color="#E5C5D5"/>
<stop offset="0.42" stop-color="#EAD4D1"/>
<stop offset="1" stop-color="#F0E9CB"/>
</linearGradient>
<linearGradient id="paint16_linear" x1="129.46" y1="476.82" x2="129.877" y2="514.86" gradientUnits="userSpaceOnUse">
<stop stop-opacity="0"/>
<stop offset="0.83" stop-opacity="0.69"/>
<stop offset="0.99"/>
</linearGradient>
<linearGradient id="paint17_linear" x1="129.46" y1="476.82" x2="129.877" y2="514.86" gradientUnits="userSpaceOnUse">
<stop stop-opacity="0"/>
<stop offset="0.83" stop-opacity="0.69"/>
<stop offset="0.99"/>
</linearGradient>
<linearGradient id="paint18_linear" x1="128.808" y1="497.874" x2="129.246" y2="535.914" gradientUnits="userSpaceOnUse">
<stop stop-opacity="0"/>
<stop offset="0.83" stop-opacity="0.69"/>
<stop offset="0.99"/>
</linearGradient>
<linearGradient id="paint19_linear" x1="128.808" y1="497.874" x2="129.246" y2="535.914" gradientUnits="userSpaceOnUse">
<stop stop-opacity="0"/>
<stop offset="0.83" stop-opacity="0.69"/>
<stop offset="0.99"/>
</linearGradient>
<linearGradient id="paint20_linear" x1="128.808" y1="497.874" x2="129.246" y2="535.914" gradientUnits="userSpaceOnUse">
<stop stop-opacity="0"/>
<stop offset="0.83" stop-opacity="0.69"/>
<stop offset="0.99"/>
</linearGradient>
<linearGradient id="paint21_linear" x1="522.73" y1="219.712" x2="560.024" y2="226.807" gradientUnits="userSpaceOnUse">
<stop stop-color="#E5C5D5"/>
<stop offset="0.42" stop-color="#EAD4D1"/>
<stop offset="1" stop-color="#F0E9CB"/>
</linearGradient>
<clipPath id="clip0">
<rect width="102" height="94" fill="white"/>
</clipPath>
</defs>
</svg>
