<svg width="205" height="255" viewBox="0 0 205 255" fill="none" xmlns="http://www.w3.org/2000/svg">
<g clip-path="url(#clip0)">
<path d="M169.016 192H231L211.564 234.9H96L169.016 192Z" fill="#B38800"/>
<path opacity="0.18" d="M204.413 106.038C201.438 135.393 189.21 161.884 176.077 186.429C160.555 215.447 141.098 244.976 113.908 252.311C104.007 254.987 93.7514 254.464 83.6604 253.384C72.8707 252.234 61.9062 250.392 52.0619 244.679C36.5966 235.715 25.8582 218.427 16.7537 200.938C7.64925 183.45 -4.64592 165.186 1.77654 142.573C4.3147 133.648 9.94592 126.804 14.7345 119.488C29.1208 97.514 36.4887 69.7239 48.3471 45.5207C60.2056 21.3174 79.586 -0.888818 102.173 0.617018C113.255 1.35378 123.526 7.72612 134.162 11.7007C142.963 14.9903 152.227 16.7288 161.095 19.6565C167.332 21.7181 173.375 24.3549 178.908 28.5493C182.601 31.3466 185.969 34.772 188.917 38.7282C201.767 55.887 206.833 82.139 204.413 106.038Z" fill="#FF9F43"/>
<path d="M32.0558 204.751V121.879L172.867 109.49V192.356L99.2759 235.366L32.0558 204.751Z" fill="#FF9F43"/>
<path d="M172.867 109.49V192.356L99.2759 235.359L99.1423 235.301L32.0507 204.751V121.879L99.1423 115.978L172.867 109.49Z" fill="url(#paint0_linear)"/>
<path d="M172.867 109.49V192.356L99.2759 235.359L99.1423 235.301V115.978L172.867 109.49Z" fill="url(#paint1_linear)"/>
<path d="M32.0558 121.879L105.416 81.6154L172.867 109.49L99.2759 152.493L32.0558 121.879Z" fill="#FF9F43"/>
<path d="M188.918 38.7281L188.836 38.8057C182.984 43.8596 176.469 47.608 170.062 51.4792C158.517 58.4397 147.927 65.4777 136.768 73.3494L136.711 73.3946C135.735 77.2723 132.847 79.8122 129.929 81.4796C127.011 83.147 123.846 84.2716 121.241 86.6499C119.579 88.1559 118.207 90.1129 117.228 92.3759C116.928 93.2104 116.535 93.9872 116.062 94.6831C115.412 95.3738 114.651 95.8808 113.832 96.1696C109.721 98.0309 105.226 99.9051 100.987 98.3928C99.1642 97.6182 97.4352 96.5308 95.849 95.1614C94.9655 94.5751 94.2009 93.7415 93.6139 92.7249C93.2232 91.8244 92.9934 90.8275 92.9409 89.8037C92.1548 81.0337 95.5407 72.3218 100.386 65.9366C105.231 59.5513 111.422 55.0919 117.516 50.7231C120.552 48.5451 124.303 47.7179 127.72 46.7808C140.852 43.181 151.319 31.2054 161.096 19.6563C167.262 21.6921 173.258 24.3031 178.745 28.4264L178.909 28.5492C182.602 31.3465 185.97 34.7718 188.918 38.7281Z" fill="#F3BD8F"/>
<path d="M111.335 71.8501C108.252 71.4882 105.308 73.2267 102.6 75.1332C100.545 76.6067 98.4898 78.2353 96.861 80.465C95.2323 82.6947 94.1379 85.603 94.2355 88.6082C94.2204 89.6424 94.4971 90.6498 95.0165 91.4518C96.188 93.0417 98.3973 92.4148 99.615 90.8895C100.833 89.3643 101.413 87.2251 102.266 85.3444C103.253 83.1715 104.624 81.3138 106.274 79.9157C107.635 78.7588 107.872 78.8299 108.73 77.2142C108.915 76.9105 111.432 71.863 111.335 71.8501Z" fill="url(#paint2_linear)"/>
<path d="M116.704 75.7472C119.679 74.8359 122.618 73.5563 125.68 73.44C126.569 73.4012 127.602 73.5628 128.079 74.5128C128.26 74.906 128.358 75.3511 128.362 75.8054C128.465 79.1208 126.086 81.6219 123.984 83.6124C120.508 86.9377 117.179 90.4997 114.012 94.2826C110.831 91.2436 108.204 87.3855 106.305 82.9662C105.837 81.8739 104.321 79.5667 104.306 78.3646C104.306 76.7295 106.361 77.4275 107.389 77.3758C110.529 77.2216 113.649 76.676 116.704 75.7472Z" fill="url(#paint3_linear)"/>
<path d="M84.7457 120.166L113.863 104.074L120.136 106.2L91.4199 122.292L84.7457 120.166Z" fill="url(#paint4_linear)"/>
<path d="M90.4541 119.862L96.4861 75.8441L119.175 78.2741L116.761 106.2L90.4541 119.862Z" fill="white"/>
<path d="M107.584 82.5008C107.542 83.1823 107.63 83.8664 107.84 84.4968C108.05 85.1272 108.376 85.6858 108.791 86.1264C110.03 87.3027 111.874 86.8438 113.138 85.7387C114.402 84.6335 115.348 83.0114 116.473 81.6542C120.259 77.0914 126.163 75.7859 129.4 70.5898C129.665 70.24 129.821 69.7805 129.837 69.2973C129.796 68.651 129.323 68.1921 128.855 67.869C124.853 65.0253 118.795 65.0706 114.721 67.869C111.366 70.2021 107.718 77.8734 107.584 82.5008Z" fill="#F3BD8F"/>
<path d="M188.918 38.7281L188.836 38.8057C182.984 43.8596 176.469 47.608 170.062 51.4792C158.517 58.4397 147.927 65.4777 136.768 73.3494C136.388 69.9758 138.458 66.7897 140.452 64.3015C147.504 55.5953 155.379 48.0115 163.901 41.7204C168.012 38.7023 172.307 35.962 175.924 32.0262C176.952 30.9275 177.707 29.37 178.745 28.3747L178.909 28.4975C182.605 31.3107 185.973 34.7536 188.918 38.7281Z" fill="url(#paint5_linear)"/>
</g>
<defs>
<linearGradient id="paint0_linear" x1="134.892" y1="106.698" x2="-64.9755" y2="303.094" gradientUnits="userSpaceOnUse">
<stop offset="0.01"/>
<stop offset="0.13" stop-opacity="0.69"/>
<stop offset="1" stop-opacity="0"/>
</linearGradient>
<linearGradient id="paint1_linear" x1="22515.2" y1="23907.7" x2="-8621.72" y2="46450.3" gradientUnits="userSpaceOnUse">
<stop offset="0.01"/>
<stop offset="0.13" stop-opacity="0.69"/>
<stop offset="1" stop-opacity="0"/>
</linearGradient>
<linearGradient id="paint2_linear" x1="3305.91" y1="1863.35" x2="4150.9" y2="2971.53" gradientUnits="userSpaceOnUse">
<stop offset="0.01"/>
<stop offset="0.13" stop-opacity="0.69"/>
<stop offset="1" stop-opacity="0"/>
</linearGradient>
<linearGradient id="paint3_linear" x1="5760.38" y1="2263.49" x2="5968.25" y2="3063.19" gradientUnits="userSpaceOnUse">
<stop offset="0.01"/>
<stop offset="0.13" stop-opacity="0.69"/>
<stop offset="1" stop-opacity="0"/>
</linearGradient>
<linearGradient id="paint4_linear" x1="6900.22" y1="2311.08" x2="7114.15" y2="5558.39" gradientUnits="userSpaceOnUse">
<stop offset="0.01"/>
<stop offset="0.13" stop-opacity="0.69"/>
<stop offset="1" stop-opacity="0"/>
</linearGradient>
<linearGradient id="paint5_linear" x1="18490.9" y1="6797.52" x2="16947.2" y2="1585.67" gradientUnits="userSpaceOnUse">
<stop offset="0.01"/>
<stop offset="0.13" stop-opacity="0.69"/>
<stop offset="1" stop-opacity="0"/>
</linearGradient>
<clipPath id="clip0">
<rect width="205" height="253.724" fill="white" transform="translate(0 0.545837)"/>
</clipPath>
</defs>
</svg>
